# xmcd
#
# Track frame offsets: 
#        150
#        17087
#        33497
#        49895
#        71503
#        85647
#        104413
#        121674
#        141861
#        162483
#        180851
#        198846
#
# Disc length: 2885 seconds
#
# Revision: 3
# Processed by: cddbd v1.5.2PL0 Copyright (c) Steve Scherf et al.
# Submitted via: ExactAudioCopyFreeDBPlugin 1.0
#
DISCID=960b430c
DTITLE=Dixie Chicks - Playlist: The Very Best of the Dixie Chicks
DYEAR=2012
DGENRE=Country
TTITLE0=Wide Open Spaces
TTITLE1=You Were Mine
TTITLE2=Sin Wagon
TTITLE3=Cowboy Take Me Away
TTITLE4=Let Him Fly
TTITLE5=Long Time Gone
TTITLE6=Landslide
TTITLE7=Truth No. 2
TTITLE8=The Long Way Around
TTITLE9=Easy Silence
TTITLE10=Not Ready to Make Nice
TTITLE11=Lubbock or Leave It
EXTD=Location:  - UPC: 887254091820 - Catalogue number: 88725409182 - Lab
EXTD=el: Camden - ASIN: B0085BHIYC - Release Date: 2012 06 18 - Discogs: 
EXTD=MUSICBRAINZ_ALBUMID: 4e62da04-6192-4980-a30f-b173d12f9276 - AMG:
EXTD=MN0000162487,MW0002382533,MW0001987060 - Released as"Playlist: Th
EXTD=e Very Best of Dixie Chicks" in 2010
EXTT0=
EXTT1=
EXTT2=
EXTT3=
EXTT4=
EXTT5=
EXTT6=
EXTT7=
EXTT8=
EXTT9=
EXTT10=
EXTT11=
PLAYORDER=
